<svg width="652" height="200" xmlns="http://www.w3.org/2000/svg" xml:space="preserve" version="1.1">

 <g>
  <title>Layer 1</title>
  <path id="svg_1" fill="#146E37" d="m75.2,171.4l0,0c-1.2,-16.9 1.8,-33.9 8.6,-49.4c2.3,-4.8 4.9,-7.7 7.1,-7.7c0.2,0 0.5,0 0.7,0.1c1.4,0.4 2.3,2.1 2.7,4.7c1.2,8.3 2.8,16.6 4.8,24.7c0,0 0,0 0,0c-6.7,10.3 -14.8,19.5 -23.9,27.6l0,0zm59.9,-7.9l0,0c-11.7,-7.9 -21,-18.9 -27,-31.7c-1.8,-3.9 -2.9,-8.8 -0.6,-10.5c0.5,-0.4 1.1,-0.5 1.7,-0.5c1.2,0.1 2.3,0.4 3.2,1.1c6.2,3.8 12.8,7.1 19.5,10l0,0l0,0c2.5,10.3 3.6,21 3.2,31.6l0,0zm-77.9,-40.8c-9.3,0.1 -18.6,-1 -27.6,-3.2c13.3,-12.1 29.4,-20.8 46.9,-25.1c1.6,-0.4 3.3,-0.6 5,-0.6c3.1,0 5.1,0.9 5.7,2.5c0.5,1.4 -0.2,3.3 -1.9,5.3c-5.9,6.6 -11.5,13.5 -16.7,20.7l0,0c-4,0.3 -7.8,0.4 -11.4,0.4zm84.5,-3.1c-4.2,0 -8.3,-0.4 -12.4,-1.3c-4.7,-1 -7.6,-3.3 -7.5,-5.6c0.1,-1.4 1.4,-2.7 3.4,-3.7c6.5,-2.8 12.9,-6.2 18.9,-9.9l0,0c8.1,4 15.5,9.4 21.8,16c-7.6,3 -15.9,4.5 -24.2,4.5zm-14.8,-23.3c-0.7,0 -1.4,-0.2 -1.9,-0.7c-1,-1.6 -1.1,-3.5 -0.4,-5.2c2.1,-7.6 3.9,-15.3 5.2,-23.1l0,0c8,-4.2 16.7,-7.1 25.6,-8.4c-4.4,13 -11.9,24.6 -21.9,34c-1.7,1.8 -4.1,3 -6.6,3.4zm-32.8,-13c-0.4,0 -0.9,0 -1.3,-0.1c-8.6,-1 -17.2,-1.5 -25.8,-1.5l0,0c-8.4,-9.8 -15.3,-20.9 -20.3,-32.8c8.5,2 16.7,5 24.5,8.8c7.8,3.7 15.1,8.6 21.6,14.3c4.3,3.9 6.2,7.6 5,9.7c-0.8,1.2 -2.2,1.8 -3.7,1.6zm20.4,-1.4c-1.3,0 -2.6,-1.1 -3.8,-3.1c-4.4,-7.2 -9.2,-14.2 -14.3,-21l0,0l0,0c1.7,-10.9 5.3,-21.4 10.6,-31.2c7.2,14.3 11,29.9 11.4,45.9c0,5.6 -1.4,9.2 -3.6,9.4c-0.2,-0.1 -0.3,0 -0.3,0z" class="st0"/>
  <path id="svg_2" fill="#3FA110" d="m98.9,174.1l0,0c-7.8,-0.1 -15.6,-1.4 -23.1,-3.7c9.2,-8.1 17.2,-17.3 23.9,-27.5l0,0c0.5,1.8 1.1,4 1.7,5.9l0.3,0.9c2.4,8.2 5.6,16.5 8.3,23.5c-3.6,0.5 -7.4,0.9 -11.1,0.9zm36.7,-11.7l0,0c0.5,-10.6 -0.6,-21.2 -3.2,-31.5c0,0 0,0 0,0c1,0.4 2.2,0.9 3.4,1.4c0.7,0.3 1.4,0.6 2.1,0.8c6.3,2.4 12.8,4.5 19.4,6.1c-5.5,9.2 -12.9,17.1 -21.7,23.2l0,0zm-86.1,-9.1l0,0c-9.4,-9.7 -16,-21.7 -19.2,-34.8c9,2.2 18.3,3.2 27.5,3.2c3.7,0 7.4,-0.1 11.3,-0.4l0,0c-1.1,1.5 -2.3,3.3 -3.5,5.1l-1,1.5c-4.7,7.1 -9.6,15.2 -15.1,25.4l0,0zm117,-39.2l0,0c-6.3,-6.5 -13.7,-11.9 -21.8,-15.9l0,0c1,-0.6 2,-1.3 3.1,-2c0.6,-0.4 1.3,-0.8 1.9,-1.2c5.7,-3.8 11.2,-7.9 16.4,-12.3c1.7,10.4 1.9,21 0.4,31.4l0,0zm-136.9,-30.4l0,0c2.7,-13.3 8.8,-25.6 17.8,-35.7c5,11.9 11.8,22.9 20.3,32.7l0,0l0,0l0,0c-1.8,0 -4,0.1 -6.1,0.2l-0.1,0l-1.6,0.1c-10.5,0.4 -21.2,1.6 -30.3,2.7l0,0zm100.7,-17.4l0,0c0.3,-1.8 0.6,-4 0.9,-6l0.1,-0.6c1.1,-8.2 1.7,-16.5 2.2,-24.3c9.1,5.8 16.8,13.5 22.5,22.6c-9,1.3 -17.7,4.1 -25.7,8.3l0,0l0,0zm-33.4,-9.5l0,0c-0.8,-1.1 -1.9,-2.4 -2.9,-3.6c-0.6,-0.8 -1.2,-1.5 -1.8,-2.2c-6,-7.6 -12.7,-14.6 -19,-21.1c10.9,-4.4 22.7,-5.8 34.3,-4.1c-5.3,9.6 -8.9,20.1 -10.6,31l0,0l0,0z" class="st1"/>
  <path id="svg_3" fill="#3FA110" d="m534.4,150.5c-5.6,0.4 -11,-1.8 -14.8,-5.9c-5.3,-6.1 -6.8,-16.9 -4.7,-32.9c4.1,-30.1 15.2,-36.2 31.7,-36.2c6.9,0 13.8,0.6 20.6,1.6l4.1,-29.2l22.4,0l-14.1,100.9l-17.9,0l0,-11.3c-8.7,8.7 -17.9,13 -27.3,13zm20.8,-58.3c-12.5,0 -15.1,1.6 -17.6,20.1c-1.3,9.5 -1.6,15.4 0.2,17.5c0.9,0.9 2.2,1.3 3.5,1.2c0.2,0 0.4,0 0.5,0c6.8,-0.1 12.2,-3.8 19.2,-10.1l3.9,-28.8l-9.7,0.1zm-84.1,58.3c-12.9,0 -21.8,-3 -27.2,-9.1c-5.5,-6.3 -7.3,-16 -5.7,-29.8c3.2,-27 13.4,-36 40.5,-36c13.4,0 22.1,2.6 26.7,7.9c3.6,4.9 4.9,11.2 3.5,17.1c-2.2,15.2 -12.6,19 -28.8,20.1l-19.2,1.5c-0.2,3.1 1.1,6 3.6,8c2.8,1.5 6,2.1 9.1,1.8c8.7,0 17.4,-0.5 26,-1.5l1.1,-0.3l0.1,1.1c0.6,4.3 1.4,8.5 2.6,12.6l0.3,0.9l-0.8,0.4c-10.3,3.5 -21,5.4 -31.8,5.3zm8.3,-57.8c-0.7,0 -1.4,0 -2.1,0c-10.6,0 -13.1,3.8 -15.2,15.2l14.6,-1.4c6.5,-0.5 9.6,-1.8 10.3,-8.1c0.3,-1.5 0.1,-3 -0.7,-4.3c-0.9,-1.2 -3.3,-1.4 -6.9,-1.4l0,0zm-133.3,57.8c-12.7,0 -21.3,-2.9 -26.4,-8.9c-5.3,-6.2 -6.9,-15.9 -5,-29.6c1.9,-13.8 5.4,-22.5 11.3,-28.2c6,-5.8 14.6,-8.4 27.3,-8.4c8.9,-0.2 17.8,0.8 26.4,3.2l-2.2,16c-0.1,0 -16.8,-0.3 -21.4,-0.3c-11.2,0 -16.2,2.6 -18.1,19c-1.1,8.8 -0.7,13.4 1.3,15.7c1.6,1.9 4.6,2.6 10.4,2.6c7.2,0.1 14.3,-0.3 21.4,-1.3l1.5,-0.3l-2.3,16.9l-0.6,0.2c-7.7,2.4 -15.6,3.6 -23.6,3.4zm269.6,-1.6l-22.3,0l9.8,-71.3l22.3,0l-9.8,71.3l0,0zm-211.1,0l-22.5,0l9.8,-71.3l17.7,0l0,13.8c10.4,-9.6 18.3,-13.8 26.6,-13.8l4.3,0l-0.9,1.5c-3.7,6.3 -6.4,13 -8.2,20.1l-0.2,0.8l-4.8,0c-6.3,0.5 -12.2,3.3 -16.5,8l-5.3,40.9l0,0zm-106.3,0l-22.3,0l9.8,-71.3l22.3,0l-9.8,71.3l0,0zm-67.7,0l-34.5,0l2.7,-19.6l30.8,0c12.4,0 15.5,-1.8 16.7,-9.5c0.7,-5.8 -0.5,-6.9 -6.3,-9l-18.1,-7.3c-13.7,-5.8 -18.8,-14.5 -16.9,-29.2c3,-22.3 15.7,-26.5 38,-26.5l32.8,0l-2.7,19.6l-36.8,0c-4.9,0.3 -7.4,1.7 -8.4,8.4c-0.9,5.9 0.3,6.9 7,9.5l17.2,6.6c16.5,6.5 18.8,16.1 17.1,29.4c-2.8,21.1 -11.8,27.5 -38.6,27.6l0,0zm396.3,-81.5l-22.3,0l2.7,-19.6l22.3,0l-2.7,19.6l0,0zm-317.4,0l-22.3,0l2.7,-19.6l22.3,0l-2.7,19.6l0,0z" class="st1"/>
 </g>
</svg>