<?xml version="1.0" encoding="utf-8"?>
<!-- Generator: Adobe Illustrator 19.0.0, SVG Export Plug-In . SVG Version: 6.00 Build 0)  -->
<svg version="1.1" id="layer" xmlns="http://www.w3.org/2000/svg" xmlns:xlink="http://www.w3.org/1999/xlink" x="0px" y="0px"
	 viewBox="-153 -46 652 652" style="enable-background:new -153 -46 652 652;" xml:space="preserve">
<style type="text/css">
	.st0{fill:#146E37;}
	.st1{fill:#3FA110;}
</style>
<path class="st0" d="M-85.8,347.4L-85.8,347.4c-1.2-16.9,1.8-33.9,8.6-49.4c2.3-4.8,4.9-7.7,7.1-7.7c0.2,0,0.5,0,0.7,0.1
	c1.4,0.4,2.3,2.1,2.7,4.7c1.2,8.3,2.8,16.6,4.8,24.7c0,0,0,0,0,0C-68.6,330.1-76.7,339.3-85.8,347.4L-85.8,347.4z M-25.9,339.5
	L-25.9,339.5c-11.7-7.9-21-18.9-27-31.7c-1.8-3.9-2.9-8.8-0.6-10.5c0.5-0.4,1.1-0.5,1.7-0.5c1.2,0.1,2.3,0.4,3.2,1.1
	c6.2,3.8,12.8,7.1,19.5,10l0,0v0C-26.6,318.2-25.5,328.9-25.9,339.5L-25.9,339.5z M-103.8,298.7c-9.3,0.1-18.6-1-27.6-3.2
	c13.3-12.1,29.4-20.8,46.9-25.1c1.6-0.4,3.3-0.6,5-0.6c3.1,0,5.1,0.9,5.7,2.5c0.5,1.4-0.2,3.3-1.9,5.3c-5.9,6.6-11.5,13.5-16.7,20.7
	h0C-96.4,298.6-100.2,298.7-103.8,298.7z M-19.3,295.6c-4.2,0-8.3-0.4-12.4-1.3c-4.7-1-7.6-3.3-7.5-5.6c0.1-1.4,1.4-2.7,3.4-3.7
	c6.5-2.8,12.9-6.2,18.9-9.9h0c8.1,4,15.5,9.4,21.8,16C-2.7,294.1-11,295.6-19.3,295.6z M-34.1,272.3c-0.7,0-1.4-0.2-1.9-0.7
	c-1-1.6-1.1-3.5-0.4-5.2c2.1-7.6,3.9-15.3,5.2-23.1h0c8-4.2,16.7-7.1,25.6-8.4c-4.4,13-11.9,24.6-21.9,34
	C-29.2,270.7-31.6,271.9-34.1,272.3z M-66.9,259.3c-0.4,0-0.9,0-1.3-0.1c-8.6-1-17.2-1.5-25.8-1.5l0,0c-8.4-9.8-15.3-20.9-20.3-32.8
	c8.5,2,16.7,5,24.5,8.8c7.8,3.7,15.1,8.6,21.6,14.3c4.3,3.9,6.2,7.6,5,9.7C-64,258.9-65.4,259.5-66.9,259.3z M-46.5,257.9
	c-1.3,0-2.6-1.1-3.8-3.1c-4.4-7.2-9.2-14.2-14.3-21v0v0c1.7-10.9,5.3-21.4,10.6-31.2c7.2,14.3,11,29.9,11.4,45.9
	c0,5.6-1.4,9.2-3.6,9.4C-46.4,257.8-46.5,257.9-46.5,257.9z"/>
<path class="st1" d="M-62.1,350.1L-62.1,350.1c-7.8-0.1-15.6-1.4-23.1-3.7c9.2-8.1,17.2-17.3,23.9-27.5l0,0c0.5,1.8,1.1,4,1.7,5.9
	l0.3,0.9c2.4,8.2,5.6,16.5,8.3,23.5C-54.6,349.7-58.4,350.1-62.1,350.1z M-25.4,338.4L-25.4,338.4c0.5-10.6-0.6-21.2-3.2-31.5
	c0,0,0,0,0,0c1,0.4,2.2,0.9,3.4,1.4c0.7,0.3,1.4,0.6,2.1,0.8c6.3,2.4,12.8,4.5,19.4,6.1C-9.2,324.4-16.6,332.3-25.4,338.4
	L-25.4,338.4z M-111.5,329.3L-111.5,329.3c-9.4-9.7-16-21.7-19.2-34.8c9,2.2,18.3,3.2,27.5,3.2c3.7,0,7.4-0.1,11.3-0.4h0
	c-1.1,1.5-2.3,3.3-3.5,5.1l-1,1.5C-101.1,311-106,319.1-111.5,329.3L-111.5,329.3z M5.5,290.1L5.5,290.1
	c-6.3-6.5-13.7-11.9-21.8-15.9h0c1-0.6,2-1.3,3.1-2c0.6-0.4,1.3-0.8,1.9-1.2c5.7-3.8,11.2-7.9,16.4-12.3
	C6.8,269.1,7,279.7,5.5,290.1L5.5,290.1z M-131.4,259.7L-131.4,259.7c2.7-13.3,8.8-25.6,17.8-35.7c5,11.9,11.8,22.9,20.3,32.7l0,0v0
	h0c-1.8,0-4,0.1-6.1,0.2h-0.1l-1.6,0.1C-111.6,257.4-122.3,258.6-131.4,259.7L-131.4,259.7z M-30.7,242.3L-30.7,242.3
	c0.3-1.8,0.6-4,0.9-6l0.1-0.6c1.1-8.2,1.7-16.5,2.2-24.3c9.1,5.8,16.8,13.5,22.5,22.6C-14,235.3-22.7,238.1-30.7,242.3L-30.7,242.3
	L-30.7,242.3z M-64.1,232.8L-64.1,232.8c-0.8-1.1-1.9-2.4-2.9-3.6c-0.6-0.8-1.2-1.5-1.8-2.2c-6-7.6-12.7-14.6-19-21.1
	c10.9-4.4,22.7-5.8,34.3-4.1C-58.8,211.4-62.4,221.9-64.1,232.8L-64.1,232.8L-64.1,232.8z"/>
<path class="st1" d="M373.4,326.5c-5.6,0.4-11-1.8-14.8-5.9c-5.3-6.1-6.8-16.9-4.7-32.9c4.1-30.1,15.2-36.2,31.7-36.2
	c6.9,0,13.8,0.6,20.6,1.6l4.1-29.2h22.4l-14.1,100.9h-17.9v-11.3C392,322.2,382.8,326.5,373.4,326.5z M394.2,268.2
	c-12.5,0-15.1,1.6-17.6,20.1c-1.3,9.5-1.6,15.4,0.2,17.5c0.9,0.9,2.2,1.3,3.5,1.2c0.2,0,0.4,0,0.5,0c6.8-0.1,12.2-3.8,19.2-10.1
	l3.9-28.8L394.2,268.2z M310.1,326.5c-12.9,0-21.8-3-27.2-9.1c-5.5-6.3-7.3-16-5.7-29.8c3.2-27,13.4-36,40.5-36
	c13.4,0,22.1,2.6,26.7,7.9c3.6,4.9,4.9,11.2,3.5,17.1c-2.2,15.2-12.6,19-28.8,20.1l-19.2,1.5c-0.2,3.1,1.1,6,3.6,8
	c2.8,1.5,6,2.1,9.1,1.8c8.7,0,17.4-0.5,26-1.5l1.1-0.3l0.1,1.1c0.6,4.3,1.4,8.5,2.6,12.6l0.3,0.9l-0.8,0.4
	C331.6,324.7,320.9,326.6,310.1,326.5z M318.4,268.7c-0.7,0-1.4,0-2.1,0c-10.6,0-13.1,3.8-15.2,15.2l14.6-1.4
	c6.5-0.5,9.6-1.8,10.3-8.1c0.3-1.5,0.1-3-0.7-4.3C324.4,268.9,322,268.7,318.4,268.7L318.4,268.7z M185.1,326.5
	c-12.7,0-21.3-2.9-26.4-8.9c-5.3-6.2-6.9-15.9-5-29.6c1.9-13.8,5.4-22.5,11.3-28.2c6-5.8,14.6-8.4,27.3-8.4
	c8.9-0.2,17.8,0.8,26.4,3.2l-2.2,16c-0.1,0-16.8-0.3-21.4-0.3c-11.2,0-16.2,2.6-18.1,19c-1.1,8.8-0.7,13.4,1.3,15.7
	c1.6,1.9,4.6,2.6,10.4,2.6c7.2,0.1,14.3-0.3,21.4-1.3l1.5-0.3l-2.3,16.9l-0.6,0.2C201,325.5,193.1,326.7,185.1,326.5z M454.7,324.9
	h-22.3l9.8-71.3h22.3L454.7,324.9L454.7,324.9z M243.6,324.9h-22.5l9.8-71.3h17.7v13.8c10.4-9.6,18.3-13.8,26.6-13.8h4.3l-0.9,1.5
	c-3.7,6.3-6.4,13-8.2,20.1l-0.2,0.8h-4.8c-6.3,0.5-12.2,3.3-16.5,8L243.6,324.9L243.6,324.9z M137.3,324.9H115l9.8-71.3h22.3
	L137.3,324.9L137.3,324.9z M69.6,324.9H35.1l2.7-19.6h30.8c12.4,0,15.5-1.8,16.7-9.5c0.7-5.8-0.5-6.9-6.3-9l-18.1-7.3
	C47.2,273.7,42.1,265,44,250.3c3-22.3,15.7-26.5,38-26.5h32.8l-2.7,19.6H75.3c-4.9,0.3-7.4,1.7-8.4,8.4c-0.9,5.9,0.3,6.9,7,9.5
	l17.2,6.6c16.5,6.5,18.8,16.1,17.1,29.4C105.4,318.4,96.4,324.8,69.6,324.9L69.6,324.9z M465.9,243.4h-22.3l2.7-19.6h22.3
	L465.9,243.4L465.9,243.4z M148.5,243.4h-22.3l2.7-19.6h22.3L148.5,243.4L148.5,243.4z"/>
</svg>
